<svg xmlns="http://www.w3.org/2000/svg" viewBox="0 0 280.82 93.99"><defs><style>.cls-1{fill:#004497;}</style></defs><g id="Layer_2" data-name="Layer 2"><g id="Layer_1-2" data-name="Layer 1"><g id="Group_6" data-name="Group 6"><path id="Path_1" data-name="Path 1" class="cls-1" d="M56.55,16l-12.35,0A3.82,3.82,0,0,0,41.07,19a4.77,4.77,0,0,0,1,3L57.8,35a19.83,19.83,0,0,1,4.9,18.67c-1.65,6.49-7.8,14-18.59,14.8l-13.65,0V55.14l14.23,0a6.87,6.87,0,0,0,5.3-5.4,7,7,0,0,0-2.05-5.9l-14.77-12a16.6,16.6,0,0,1,10-28.68H56.55Z"/><path id="Path_2" data-name="Path 2" class="cls-1" d="M112.78,3.16a43.9,43.9,0,0,0-12.43,12.75l-9.54,0c-1.51,0-2,.58-2.1,2.1l.05,50.42H75.62l-.05-50.62c0-1-.53-1.9-2-1.93H60.19V3.17Z"/><path id="Path_3" data-name="Path 3" class="cls-1" d="M243.72,3.22c3.39-.06,6,2.2,7.5,5.11a11.26,11.26,0,0,1,.51,7.65l-16,38.3s-.18.93.73.93h15.91V68.45H228a8.57,8.57,0,0,1-7.26-5.94,10.41,10.41,0,0,1,.51-7.58L237.13,17c.38-1.14-.63-1-.63-1H218.06A23.61,23.61,0,0,0,207.6,3.15S243.72,3.22,243.72,3.22Z"/><path id="Path_4" data-name="Path 4" class="cls-1" d="M196.44,3.22a21.42,21.42,0,0,1,17.89,11.6c3.45,6.49,2.38,15.69-2.25,21.32a19.33,19.33,0,0,1-6.77,5.36l12.68,27-13.4,0s-11.83-24.22-12-24.22l0,24.22h-13V15.93l-11.52,0A42.85,42.85,0,0,0,155.74,3.15ZM193.5,15.91s-1,.07-1,.85V30.09c0,.75.93.84.93.84s2.74-.06,2.77,0a7.15,7.15,0,0,0,5.83-3.62,8.33,8.33,0,0,0,0-7.82,6.44,6.44,0,0,0-6-3.56s-2.56,0-2.52,0Z"/><g id="Group_1" data-name="Group 1"><path id="Path_5" data-name="Path 5" class="cls-1" d="M134.05,45.54a9.73,9.73,0,1,0-9.73-9.73h0a9.73,9.73,0,0,0,9.73,9.73Z"/></g><path id="Path_7" data-name="Path 7" class="cls-1" d="M114,35.81a20.38,20.38,0,1,1,20.38,20.38h0A20.38,20.38,0,0,1,114,35.81Zm20.38,0V71.62A35.81,35.81,0,1,0,98.61,35.8h0a35.81,35.81,0,0,0,35.8,35.81Z"/><g id="Group_3" data-name="Group 3"><path id="Path_8" data-name="Path 8" class="cls-1" d="M70.72,78.46c0-.07-1.53,3.17-1.53,3.17s-2.38-1.25-3.64-.66A1.44,1.44,0,0,0,65,82.69c1.79,1.52,4.77.73,6,3.25a5.52,5.52,0,0,1-.47,5.62c-1.52,1.92-3.7,2.32-6.09,2.25a8.42,8.42,0,0,1-4.65-1.93s1.81-3,1.8-3.1C63,89.9,64.82,90.7,66.47,90a1.4,1.4,0,0,0,.66-1.72c-1.72-2-5.23-.8-6.35-3.64-.53-1.66-.53-3.91.66-5.23,1.39-2,3.71-2.39,6.09-2A11,11,0,0,1,70.72,78.46Z"/><path id="Path_9" data-name="Path 9" class="cls-1" d="M49.2,89.84l4.83,0v3.66H45V77.79H49.2Z"/><path id="Path_10" data-name="Path 10" class="cls-1" d="M82.37,81.36H79.13V93.48H74.75V81.35H71.44V77.79H82.37Z"/><path id="Path_11" data-name="Path 11" class="cls-1" d="M39,77.81c1.52.2,2.74,1.77,3.33,3.07a6.3,6.3,0,0,1-.75,4.72,5.24,5.24,0,0,1-2.31,1.65L44,93.5l-5.1,0L35,88.12l0,5.36H30.85V77.79ZM35,81v3.65l1.66,0A1.6,1.6,0,0,0,38,82.86,1.64,1.64,0,0,0,36.63,81H35Z"/><path id="Path_12" data-name="Path 12" class="cls-1" d="M4.24,84l4.9-6.19h5.3l-6.31,7.6,5.95,6.89,5.8-14.48H24.1l6.23,15.69H25.89l-1.13-2.55-5.43,0-1,2.6H9.47L4.24,87v6.51H0V77.8H4.24Zm17.68-.56s-1.37,4-1.37,4l2.84,0s-1.47-4-1.47-4Z"/><rect id="Rectangle_1" data-name="Rectangle 1" class="cls-1" x="128.78" y="85.73" width="18.87" height="0.93"/><path id="Path_14" data-name="Path 14" class="cls-1" d="M86.21,85.62A4.36,4.36,0,1,1,90.57,90h0a4.36,4.36,0,0,1-4.36-4.36Zm4.36,0V94a8.37,8.37,0,1,0-8.37-8.38h0A8.36,8.36,0,0,0,90.56,94Z"/><path id="Path_15" data-name="Path 15" class="cls-1" d="M108.19,77.79c1.41,0,2.82,1.62,3.38,2.91a6,6,0,0,1-.46,4.64,6.34,6.34,0,0,1-2.52,1.72l4.5,5.83,7-11.53H114V77.78H127.2L119.81,90l6.57,0V93.5h-18L104.55,88l-.06-.07,0,5.58h-4.28V77.78ZM104.48,81v3.64l1.69,0A1.91,1.91,0,0,0,106,81Z"/><g id="Group_2" data-name="Group 2"><path id="Path_16" data-name="Path 16" class="cls-1" d="M155.94,81.23v2.53h4.44v3.33h-4.44V89.7h4.68V93H152V77.9h8.61v3.32Z"/><path id="Path_17" data-name="Path 17" class="cls-1" d="M163.05,77.9H167l7.2,9.24h0V77.9h3.94V93h-3.94L167,83.75h0V93H163Z"/><path id="Path_18" data-name="Path 18" class="cls-1" d="M180.72,77.9h5.57A7.56,7.56,0,1,1,186.54,93h-5.82Zm3.93,11.8h.88c2.35,0,4.36-1.29,4.36-4.24a4,4,0,0,0-4.31-4.23h-.93Z"/><path id="Path_19" data-name="Path 19" class="cls-1" d="M211.77,85.18a8.37,8.37,0,1,1-16.73,0c0-4.57,4-7.78,8.36-7.78S211.77,80.61,211.77,85.18Zm-12.64,0a4.28,4.28,0,1,0,8.55.49,4,4,0,0,0,0-.49,4.29,4.29,0,0,0-8.55,0Z"/><path id="Path_20" data-name="Path 20" class="cls-1" d="M221.9,81.79a4.17,4.17,0,0,0-2.61-1c-.72,0-1.68.42-1.68,1.27s1.06,1.22,1.74,1.44l1,.3c2.1.62,3.73,1.68,3.73,4.13A5.15,5.15,0,0,1,222.52,92a6.66,6.66,0,0,1-4.29,1.42,9.33,9.33,0,0,1-5.32-1.73l1.69-3.17a5.37,5.37,0,0,0,3.5,1.57c.92,0,1.9-.46,1.9-1.53s-1.54-1.48-2.39-1.72c-2.46-.7-4.09-1.34-4.09-4.27a4.91,4.91,0,0,1,4.72-5.09h.5a10.3,10.3,0,0,1,4.73,1.25Z"/><path id="Path_21" data-name="Path 21" class="cls-1" d="M234.68,77.9h4.87l-6,7.16,6.56,8H235l-5.08-6.56h0V93H226V77.9h3.93v6.23h0Z"/><path id="Path_22" data-name="Path 22" class="cls-1" d="M257.13,85.18a8.37,8.37,0,1,1-16.73,0c0-4.57,4-7.78,8.36-7.78S257.13,80.61,257.13,85.18Zm-12.64,0a4.28,4.28,0,1,0,8.55.49,4,4,0,0,0,0-.49,4.29,4.29,0,0,0-8.55,0Z"/><path id="Path_23" data-name="Path 23" class="cls-1" d="M259,77.9h6c3.25,0,5.5,1.5,5.5,5S268.54,88,265.11,88h-2.22v5H259Zm3.93,6.94h.66c1.43,0,2.84,0,2.84-1.85s-1.31-1.92-2.84-1.92h-.65Z"/><path id="Path_24" data-name="Path 24" class="cls-1" d="M276.15,81.23v2.53h4.43v3.33h-4.43V89.7h4.67V93h-8.61V77.9h8.61v3.32Z"/></g></g></g></g></g></svg>